<?xml version="1.0" standalone="no"?>
<!DOCTYPE svg PUBLIC "-//W3C//DTD SVG 20010904//EN"
 "http://www.w3.org/TR/2001/REC-SVG-20010904/DTD/svg10.dtd">
<svg version="1.0" xmlns="http://www.w3.org/2000/svg"
 width="192.000000pt" height="192.000000pt" viewBox="0 0 192.000000 192.000000"
 preserveAspectRatio="xMidYMid meet">
<metadata>
Created by potrace 1.11, written by Peter Selinger 2001-2013
</metadata>
<g transform="translate(0.000000,192.000000) scale(0.100000,-0.100000)"
fill="#000000" stroke="none">
<path d="M795 1905 c-82 -18 -102 -23 -144 -36 -55 -17 -162 -70 -197 -96 -17
-13 -34 -23 -37 -23 -22 0 -194 -170 -238 -235 -49 -72 -109 -181 -109 -198 0
-3 -5 -18 -12 -34 -17 -43 -17 -42 -37 -133 -23 -103 -21 -310 4 -405 8 -33
17 -67 20 -75 2 -8 4 -16 5 -17 2 -2 3 -6 5 -10 28 -101 125 -254 224 -354 80
-80 161 -146 161 -132 0 4 4 3 8 -3 8 -14 142 -86 142 -77 0 3 6 1 13 -4 10
-9 74 -33 102 -39 6 -1 33 -8 60 -14 109 -26 308 -20 450 14 20 5 114 42 170
67 109 49 278 193 358 305 42 59 107 185 123 239 7 24 36 132 41 150 10 41 11
242 2 305 -5 36 -19 97 -31 135 -12 39 -22 72 -23 75 -1 3 -12 28 -25 55 -107
226 -320 419 -554 501 -132 47 -357 65 -481 39z m710 -509 c28 -3 73 -8 101
-10 85 -8 109 -23 120 -76 15 -70 21 -503 9 -670 -8 -119 -16 -136 -73 -149
-99 -23 -282 -32 -662 -35 -157 -1 -295 1 -307 5 -13 5 -25 4 -28 -2 -4 -5
-11 -6 -17 -3 -6 4 -45 8 -87 9 -270 10 -309 22 -328 98 -7 29 -12 659 -5 671
3 5 6 23 7 40 4 100 24 109 256 122 63 3 116 8 118 10 6 6 840 -4 896 -10z"/>
<path d="M881 1344 c-159 -33 -267 -143 -308 -314 -18 -76 4 -193 52 -276 47
-81 167 -166 247 -176 15 -2 30 -6 33 -9 9 -10 119 1 170 16 72 21 185 97 185
124 0 6 4 11 9 11 13 0 71 120 75 153 1 15 5 29 7 32 8 8 0 113 -12 158 -35
134 -168 261 -294 281 -16 2 -30 5 -30 6 0 7 -87 3 -134 -6z"/>
</g>
</svg>
